<svg id="Capa_1" data-name="Capa 1" xmlns="http://www.w3.org/2000/svg" viewBox="0 0 707.08 360"><title>logo</title><path d="M156.68,315.77,73.23,67.53A8.41,8.41,0,1,0,57.73,74l90.66,265.42a8.42,8.42,0,0,0,7.53,5.15h.19a8.41,8.41,0,0,0,7.6-4.75l45.61-123.15a7.25,7.25,0,0,0-2.39-8.28l-.15-.11a7.24,7.24,0,0,0-11.21,3.22Z"/><path d="M319,44.16a8.41,8.41,0,0,0-10.76,5L269,157.82a.07.07,0,0,1-.14,0L255.3,97.08a8.4,8.4,0,0,0-15.77-1.83h0l-33.14,88.8a7.29,7.29,0,0,0,2.18,8.16h0a7.36,7.36,0,0,0,11.59-3.11l23.91-64.55a.07.07,0,0,1,.14,0l14.57,65.33a8.41,8.41,0,0,0,16.11,1l49.19-136A8.4,8.4,0,0,0,319,44.16Z"/><path d="M320.69,105.19h-4.11a6.22,6.22,0,0,0-5.56,9,148.74,148.74,0,0,1,15.28,65.9c0,81.5-66.07,148.43-147.57,149.53C94.6,330.74,25.92,262,27.08,177.9,28.2,96.55,94.94,30.59,176.3,30.38a148.89,148.89,0,0,1,89.22,29.3,13.42,13.42,0,0,0,8,2.64H279a5.9,5.9,0,0,0,3.74-10.45A165.71,165.71,0,0,0,174.32,13.59c-89.74,1.25-162.81,74.32-164,164.06C9,271.23,85.34,347.64,178.9,346.41c90.86-1.19,164.43-76,164.21-166.82a165.38,165.38,0,0,0-15.73-70.17A7.39,7.39,0,0,0,320.69,105.19Z"/><path d="M366.33,123.6c0-2.08,1.22-3.88,3.65-5.38A14.58,14.58,0,0,1,377.8,116q5.22,0,6.43,3.82l28.68,99.06,28.5-99.06c.8-2.55,2.88-3.82,6.22-3.82a15,15,0,0,1,7.86,2.25q3.72,2.25,3.72,5.37a5.53,5.53,0,0,1-.35,1.56l-34.4,112.62a7.51,7.51,0,0,1-4.14,4.63,16.22,16.22,0,0,1-7.41,1.65q-9.56,0-11.64-6.25L366.51,125.17A5.13,5.13,0,0,1,366.33,123.6Z"/><path d="M492.54,237.44V122.56c0-4,3.06-6.08,9.21-6.08a12.89,12.89,0,0,1,7.82,2.17q3,2.17,6.08,8.26l38.58,75.25V122.39a4.76,4.76,0,0,1,2.7-4.43,15.08,15.08,0,0,1,13,0,4.75,4.75,0,0,1,2.69,4.43V237.44a5,5,0,0,1-2.69,4.43,12.26,12.26,0,0,1-6.52,1.65q-7.29,0-11-6.78L511,157.67v79.77a5,5,0,0,1-2.7,4.43,13.51,13.51,0,0,1-12.94,0A5,5,0,0,1,492.54,237.44Z"/><path d="M599.55,235a8.33,8.33,0,0,1,1.05-3.65l30.06-51.45-29.2-51.09a9.28,9.28,0,0,1-1.39-4.52q0-3.48,3.65-5.91a14.15,14.15,0,0,1,8-2.43q4.17,0,6.95,5.21l24,44.49L667,121.17q2.43-5.22,7-5.21a13.87,13.87,0,0,1,7.82,2.43q3.65,2.43,3.65,5.91a9.28,9.28,0,0,1-1.39,4.52l-29.2,51.09,30.07,51.45A9.31,9.31,0,0,1,686.1,235q0,3.65-3.91,6.34a14,14,0,0,1-8.08,2.69q-3.65,0-5.74-4.17l-25.72-46.23-25.37,46.23q-2.43,4.17-5.91,4.17a13.8,13.8,0,0,1-7.91-2.69C600.86,239.55,599.55,237.44,599.55,235Z"/></svg>