<svg id="logo" xmlns="http://www.w3.org/2000/svg" viewBox="0 0 578 578"><title>logo2</title><path d="M517.72,196a11.69,11.69,0,0,0-10.58-6.69h-6.5a9.84,9.84,0,0,0-8.8,14.21A235,235,0,0,1,516,307.71c-.06,128.9-104.5,234.76-233.38,236.5q-8.88.12-17.61-.42l66-178.12a11.5,11.5,0,0,0-3.78-13.1l-.24-.18a11.47,11.47,0,0,0-17.74,5.09L247.74,522.33,117.62,135.24a235.94,235.94,0,0,1,302.27-17.92,21.25,21.25,0,0,0,12.65,4.17h8.73A9.33,9.33,0,0,0,447.19,105,262,262,0,0,0,275.65,44.41C133.72,46.39,18.16,162,16.19,303.89,14.14,451.9,134.91,572.74,282.9,570.8c143.7-1.89,260-120.13,259.7-263.84A261.67,261.67,0,0,0,517.72,196ZM42.77,304.29A235.33,235.33,0,0,1,97.09,157.1L227.35,538.46C120.78,514.46,41.2,418.35,42.77,304.29Z"/><path d="M431.15,257.51l-21.42-96a13.3,13.3,0,0,0-25-2.9v0L332.37,299a11.51,11.51,0,0,0,3.45,12.9A11.63,11.63,0,0,0,354.14,307L392,204.92a.11.11,0,0,1,.22,0l23,103.33a13.29,13.29,0,0,0,25.48,1.63L518.5,94.78a13.29,13.29,0,1,0-25-9L431.37,257.53A.12.12,0,0,1,431.15,257.51Z"/></svg>